<mxfile host="app.diagrams.net" agent="Mozilla/5.0 (Windows NT 10.0; Win64; x64) AppleWebKit/537.36 (KHTML, like Gecko) Chrome/131.0.0.0 Safari/537.36" version="25.0.3">
  <diagram name="Страница — 1" id="rumpjWF6Ayx6nbcvAlUh">
    <mxGraphModel dx="1629" dy="869" grid="1" gridSize="10" guides="1" tooltips="1" connect="1" arrows="1" fold="1" page="1" pageScale="1" pageWidth="827" pageHeight="1169" math="0" shadow="0">
      <root>
        <mxCell id="0" />
        <mxCell id="1" parent="0" />
        <mxCell id="MJWeuBGmJZql4_uNKvED-1" value="" style="rounded=0;whiteSpace=wrap;html=1;" vertex="1" parent="1">
          <mxGeometry x="80" y="80" width="160" height="80" as="geometry" />
        </mxCell>
        <mxCell id="MJWeuBGmJZql4_uNKvED-2" value="Авторизация в системе" style="text;strokeColor=none;align=center;fillColor=none;html=1;verticalAlign=middle;whiteSpace=wrap;rounded=0;" vertex="1" parent="1">
          <mxGeometry x="90" y="105" width="140" height="30" as="geometry" />
        </mxCell>
        <mxCell id="MJWeuBGmJZql4_uNKvED-3" value="" style="endArrow=classic;html=1;rounded=0;" edge="1" parent="1">
          <mxGeometry width="50" height="50" relative="1" as="geometry">
            <mxPoint y="90" as="sourcePoint" />
            <mxPoint x="80" y="90" as="targetPoint" />
            <Array as="points">
              <mxPoint x="40" y="90" />
            </Array>
          </mxGeometry>
        </mxCell>
        <mxCell id="MJWeuBGmJZql4_uNKvED-4" value="" style="endArrow=classic;html=1;rounded=0;" edge="1" parent="1">
          <mxGeometry width="50" height="50" relative="1" as="geometry">
            <mxPoint y="110" as="sourcePoint" />
            <mxPoint x="80" y="110" as="targetPoint" />
          </mxGeometry>
        </mxCell>
        <mxCell id="MJWeuBGmJZql4_uNKvED-5" value="" style="endArrow=classic;html=1;rounded=0;" edge="1" parent="1">
          <mxGeometry width="50" height="50" relative="1" as="geometry">
            <mxPoint y="130" as="sourcePoint" />
            <mxPoint x="80" y="130" as="targetPoint" />
          </mxGeometry>
        </mxCell>
        <mxCell id="MJWeuBGmJZql4_uNKvED-6" value="" style="endArrow=classic;html=1;rounded=0;" edge="1" parent="1">
          <mxGeometry width="50" height="50" relative="1" as="geometry">
            <mxPoint y="150" as="sourcePoint" />
            <mxPoint x="80" y="150" as="targetPoint" />
          </mxGeometry>
        </mxCell>
        <mxCell id="MJWeuBGmJZql4_uNKvED-7" value="" style="endArrow=classic;html=1;rounded=0;" edge="1" parent="1">
          <mxGeometry width="50" height="50" relative="1" as="geometry">
            <mxPoint x="160" y="10" as="sourcePoint" />
            <mxPoint x="160" y="80" as="targetPoint" />
          </mxGeometry>
        </mxCell>
        <mxCell id="MJWeuBGmJZql4_uNKvED-8" value="&lt;font style=&quot;font-size: 10px;&quot;&gt;Дата входа в ИС&lt;/font&gt;" style="text;strokeColor=none;align=center;fillColor=none;html=1;verticalAlign=middle;whiteSpace=wrap;rounded=0;" vertex="1" parent="1">
          <mxGeometry x="-10" y="60" width="100" height="30" as="geometry" />
        </mxCell>
        <mxCell id="MJWeuBGmJZql4_uNKvED-9" value="&lt;font style=&quot;font-size: 10px;&quot;&gt;Время входа в ИС&lt;/font&gt;" style="text;strokeColor=none;align=center;fillColor=none;html=1;verticalAlign=middle;whiteSpace=wrap;rounded=0;" vertex="1" parent="1">
          <mxGeometry x="-20" y="90" width="110" height="30" as="geometry" />
        </mxCell>
        <mxCell id="MJWeuBGmJZql4_uNKvED-10" value="&lt;font style=&quot;font-size: 10px;&quot;&gt;Логин&lt;/font&gt;" style="text;strokeColor=none;align=center;fillColor=none;html=1;verticalAlign=middle;whiteSpace=wrap;rounded=0;" vertex="1" parent="1">
          <mxGeometry x="5" y="105" width="60" height="30" as="geometry" />
        </mxCell>
        <mxCell id="MJWeuBGmJZql4_uNKvED-11" value="&lt;font style=&quot;font-size: 10px;&quot;&gt;Пароль&lt;/font&gt;" style="text;strokeColor=none;align=center;fillColor=none;html=1;verticalAlign=middle;whiteSpace=wrap;rounded=0;" vertex="1" parent="1">
          <mxGeometry x="10" y="130" width="60" height="30" as="geometry" />
        </mxCell>
        <mxCell id="MJWeuBGmJZql4_uNKvED-12" value="Правила работы с пронраммой" style="text;strokeColor=none;align=center;fillColor=none;html=1;verticalAlign=middle;whiteSpace=wrap;rounded=0;" vertex="1" parent="1">
          <mxGeometry x="60" y="20" width="100" height="30" as="geometry" />
        </mxCell>
        <mxCell id="MJWeuBGmJZql4_uNKvED-13" value="" style="endArrow=classic;html=1;rounded=0;" edge="1" parent="1">
          <mxGeometry width="50" height="50" relative="1" as="geometry">
            <mxPoint x="120" y="720" as="sourcePoint" />
            <mxPoint x="120" y="160" as="targetPoint" />
          </mxGeometry>
        </mxCell>
        <mxCell id="MJWeuBGmJZql4_uNKvED-14" value="" style="endArrow=classic;html=1;rounded=0;" edge="1" parent="1">
          <mxGeometry width="50" height="50" relative="1" as="geometry">
            <mxPoint x="200" y="720" as="sourcePoint" />
            <mxPoint x="200" y="160" as="targetPoint" />
          </mxGeometry>
        </mxCell>
        <mxCell id="MJWeuBGmJZql4_uNKvED-15" value="" style="endArrow=classic;html=1;rounded=0;" edge="1" parent="1">
          <mxGeometry width="50" height="50" relative="1" as="geometry">
            <mxPoint x="-40" y="240" as="sourcePoint" />
            <mxPoint x="320" y="240" as="targetPoint" />
          </mxGeometry>
        </mxCell>
        <mxCell id="MJWeuBGmJZql4_uNKvED-16" value="" style="endArrow=classic;html=1;rounded=0;exitX=0;exitY=1;exitDx=0;exitDy=0;" edge="1" parent="1" source="MJWeuBGmJZql4_uNKvED-18">
          <mxGeometry width="50" height="50" relative="1" as="geometry">
            <mxPoint y="400" as="sourcePoint" />
            <mxPoint x="560" y="400" as="targetPoint" />
          </mxGeometry>
        </mxCell>
        <mxCell id="MJWeuBGmJZql4_uNKvED-17" value="Информация о сотрудника ВУЗа" style="text;strokeColor=none;align=center;fillColor=none;html=1;verticalAlign=middle;whiteSpace=wrap;rounded=0;" vertex="1" parent="1">
          <mxGeometry x="-40" y="210" width="140" height="30" as="geometry" />
        </mxCell>
        <mxCell id="MJWeuBGmJZql4_uNKvED-18" value="Административные данные" style="text;strokeColor=none;align=center;fillColor=none;html=1;verticalAlign=middle;whiteSpace=wrap;rounded=0;" vertex="1" parent="1">
          <mxGeometry x="-50" y="370" width="180" height="30" as="geometry" />
        </mxCell>
        <mxCell id="MJWeuBGmJZql4_uNKvED-19" value="Администратор" style="text;strokeColor=none;align=center;fillColor=none;html=1;verticalAlign=middle;whiteSpace=wrap;rounded=0;" vertex="1" parent="1">
          <mxGeometry x="40" y="580" width="60" height="30" as="geometry" />
        </mxCell>
        <mxCell id="MJWeuBGmJZql4_uNKvED-20" value="А1" style="text;strokeColor=none;align=center;fillColor=none;html=1;verticalAlign=middle;whiteSpace=wrap;rounded=0;" vertex="1" parent="1">
          <mxGeometry x="200" y="135" width="60" height="30" as="geometry" />
        </mxCell>
        <mxCell id="MJWeuBGmJZql4_uNKvED-21" value="" style="rounded=0;whiteSpace=wrap;html=1;" vertex="1" parent="1">
          <mxGeometry x="320" y="200" width="160" height="80" as="geometry" />
        </mxCell>
        <mxCell id="MJWeuBGmJZql4_uNKvED-22" value="Регистрация новых пользователей" style="text;strokeColor=none;align=center;fillColor=none;html=1;verticalAlign=middle;whiteSpace=wrap;rounded=0;" vertex="1" parent="1">
          <mxGeometry x="340" y="225" width="120" height="30" as="geometry" />
        </mxCell>
        <mxCell id="MJWeuBGmJZql4_uNKvED-23" value="А2" style="text;strokeColor=none;align=center;fillColor=none;html=1;verticalAlign=middle;whiteSpace=wrap;rounded=0;" vertex="1" parent="1">
          <mxGeometry x="440" y="255" width="60" height="30" as="geometry" />
        </mxCell>
        <mxCell id="MJWeuBGmJZql4_uNKvED-24" value="" style="rounded=0;whiteSpace=wrap;html=1;" vertex="1" parent="1">
          <mxGeometry x="560" y="360" width="160" height="80" as="geometry" />
        </mxCell>
        <mxCell id="MJWeuBGmJZql4_uNKvED-25" value="Обслуживание системы" style="text;strokeColor=none;align=center;fillColor=none;html=1;verticalAlign=middle;whiteSpace=wrap;rounded=0;" vertex="1" parent="1">
          <mxGeometry x="560" y="385" width="150" height="30" as="geometry" />
        </mxCell>
        <mxCell id="MJWeuBGmJZql4_uNKvED-26" value="А3" style="text;strokeColor=none;align=center;fillColor=none;html=1;verticalAlign=middle;whiteSpace=wrap;rounded=0;" vertex="1" parent="1">
          <mxGeometry x="680" y="415" width="60" height="30" as="geometry" />
        </mxCell>
        <mxCell id="MJWeuBGmJZql4_uNKvED-27" value="" style="endArrow=classic;html=1;rounded=0;entryX=0.75;entryY=0;entryDx=0;entryDy=0;" edge="1" parent="1" target="MJWeuBGmJZql4_uNKvED-24">
          <mxGeometry width="50" height="50" relative="1" as="geometry">
            <mxPoint x="240" y="90" as="sourcePoint" />
            <mxPoint x="680" y="90" as="targetPoint" />
            <Array as="points">
              <mxPoint x="680" y="90" />
            </Array>
          </mxGeometry>
        </mxCell>
        <mxCell id="MJWeuBGmJZql4_uNKvED-28" value="" style="endArrow=classic;html=1;rounded=0;entryX=-0.012;entryY=0.134;entryDx=0;entryDy=0;entryPerimeter=0;" edge="1" parent="1">
          <mxGeometry width="50" height="50" relative="1" as="geometry">
            <mxPoint x="240" y="150" as="sourcePoint" />
            <mxPoint x="559.9999999999999" y="370.72" as="targetPoint" />
            <Array as="points">
              <mxPoint x="522" y="150" />
              <mxPoint x="521.92" y="371" />
            </Array>
          </mxGeometry>
        </mxCell>
        <mxCell id="MJWeuBGmJZql4_uNKvED-30" value="" style="endArrow=classic;html=1;rounded=0;entryX=0;entryY=0.25;entryDx=0;entryDy=0;" edge="1" parent="1" target="MJWeuBGmJZql4_uNKvED-24">
          <mxGeometry width="50" height="50" relative="1" as="geometry">
            <mxPoint x="480" y="240" as="sourcePoint" />
            <mxPoint x="500" y="380" as="targetPoint" />
            <Array as="points">
              <mxPoint x="500" y="240" />
              <mxPoint x="500" y="380" />
            </Array>
          </mxGeometry>
        </mxCell>
        <mxCell id="MJWeuBGmJZql4_uNKvED-32" value="" style="endArrow=classic;html=1;rounded=0;entryX=0.25;entryY=0;entryDx=0;entryDy=0;" edge="1" parent="1" target="MJWeuBGmJZql4_uNKvED-24">
          <mxGeometry width="50" height="50" relative="1" as="geometry">
            <mxPoint x="160" y="40" as="sourcePoint" />
            <mxPoint x="590" y="40" as="targetPoint" />
            <Array as="points">
              <mxPoint x="600" y="40" />
            </Array>
          </mxGeometry>
        </mxCell>
        <mxCell id="MJWeuBGmJZql4_uNKvED-34" value="" style="endArrow=classic;html=1;rounded=0;entryX=0.25;entryY=1;entryDx=0;entryDy=0;" edge="1" parent="1" target="MJWeuBGmJZql4_uNKvED-24">
          <mxGeometry width="50" height="50" relative="1" as="geometry">
            <mxPoint x="120" y="520" as="sourcePoint" />
            <mxPoint x="620" y="520" as="targetPoint" />
            <Array as="points">
              <mxPoint x="600" y="520" />
            </Array>
          </mxGeometry>
        </mxCell>
        <mxCell id="MJWeuBGmJZql4_uNKvED-36" value="" style="endArrow=classic;html=1;rounded=0;entryX=0;entryY=0.75;entryDx=0;entryDy=0;" edge="1" parent="1">
          <mxGeometry width="50" height="50" relative="1" as="geometry">
            <mxPoint x="200" y="560" as="sourcePoint" />
            <mxPoint x="680" y="440" as="targetPoint" />
            <Array as="points">
              <mxPoint x="680" y="562.5" />
            </Array>
          </mxGeometry>
        </mxCell>
        <mxCell id="MJWeuBGmJZql4_uNKvED-38" value="БД" style="text;strokeColor=none;align=center;fillColor=none;html=1;verticalAlign=middle;whiteSpace=wrap;rounded=0;" vertex="1" parent="1">
          <mxGeometry x="150" y="560" width="60" height="30" as="geometry" />
        </mxCell>
        <mxCell id="MJWeuBGmJZql4_uNKvED-39" value="Предоставленные&lt;div&gt;ролномония&lt;/div&gt;" style="text;strokeColor=none;align=center;fillColor=none;html=1;verticalAlign=middle;whiteSpace=wrap;rounded=0;" vertex="1" parent="1">
          <mxGeometry x="260" y="50" width="60" height="30" as="geometry" />
        </mxCell>
        <mxCell id="MJWeuBGmJZql4_uNKvED-40" value="Сообщения об ищибках авторизации" style="text;strokeColor=none;align=center;fillColor=none;html=1;verticalAlign=middle;whiteSpace=wrap;rounded=0;" vertex="1" parent="1">
          <mxGeometry x="240" y="100" width="150" height="30" as="geometry" />
        </mxCell>
        <mxCell id="MJWeuBGmJZql4_uNKvED-41" value="Данные для авторизации&lt;div&gt;пользователей&lt;/div&gt;" style="text;strokeColor=none;align=center;fillColor=none;html=1;verticalAlign=middle;whiteSpace=wrap;rounded=0;" vertex="1" parent="1">
          <mxGeometry x="390" y="320" width="100" height="30" as="geometry" />
        </mxCell>
        <mxCell id="MJWeuBGmJZql4_uNKvED-42" value="" style="endArrow=classic;html=1;rounded=0;" edge="1" parent="1">
          <mxGeometry width="50" height="50" relative="1" as="geometry">
            <mxPoint x="720" y="385" as="sourcePoint" />
            <mxPoint x="880" y="385" as="targetPoint" />
          </mxGeometry>
        </mxCell>
        <mxCell id="MJWeuBGmJZql4_uNKvED-43" value="" style="endArrow=classic;html=1;rounded=0;" edge="1" parent="1">
          <mxGeometry width="50" height="50" relative="1" as="geometry">
            <mxPoint x="720" y="425" as="sourcePoint" />
            <mxPoint x="880" y="425" as="targetPoint" />
          </mxGeometry>
        </mxCell>
        <mxCell id="MJWeuBGmJZql4_uNKvED-44" value="Журнал посещения пользователей" style="text;strokeColor=none;align=center;fillColor=none;html=1;verticalAlign=middle;whiteSpace=wrap;rounded=0;" vertex="1" parent="1">
          <mxGeometry x="720" y="350" width="120" height="30" as="geometry" />
        </mxCell>
        <mxCell id="MJWeuBGmJZql4_uNKvED-46" value="Конфигурация ПО" style="text;strokeColor=none;align=center;fillColor=none;html=1;verticalAlign=middle;whiteSpace=wrap;rounded=0;" vertex="1" parent="1">
          <mxGeometry x="670" y="400" width="240" height="30" as="geometry" />
        </mxCell>
      </root>
    </mxGraphModel>
  </diagram>
</mxfile>
